<svg width="16" height="18" viewBox="0 0 16 18" fill="none" xmlns="http://www.w3.org/2000/svg">
<path d="M5.29995 13.1433C5.10662 13.3367 5.10662 13.6567 5.29995 13.85C5.48995 14.04 5.81662 14.04 6.00662 13.85L11.6666 8.19C12.1433 7.71333 12.4033 7.08 12.4033 6.40667C12.4033 5.73333 12.14 5.09667 11.6666 4.62333C10.6833 3.64 9.08329 3.64 8.09662 4.62333L1.33329 11.39C0.656621 12.0667 0.286621 12.9633 0.286621 13.92C0.286621 14.8767 0.659954 15.7733 1.33329 16.45C2.00995 17.1267 2.90662 17.5 3.86329 17.5C4.81995 17.5 5.71662 17.1267 6.39329 16.45L14.3433 8.5C15.23 7.61333 15.7166 6.43667 15.7166 5.18667C15.7166 3.93667 15.23 2.75667 14.3433 1.87333C13.4566 0.986667 12.28 0.5 11.03 0.5C9.77996 0.5 8.59996 0.986667 7.71662 1.87333L0.596621 8.99C0.403288 9.18333 0.403288 9.50333 0.596621 9.69667C0.786621 9.88667 1.11329 9.88667 1.30329 9.69667L8.41996 2.58C9.11662 1.88333 10.0433 1.5 11.0266 1.5C12.0133 1.5 12.9366 1.88333 13.6333 2.58C14.33 3.27667 14.7133 4.20333 14.7133 5.18667C14.7133 6.17 14.3333 7.1 13.6366 7.79333L5.68662 15.7433C5.19995 16.23 4.54995 16.5 3.86329 16.5C3.17662 16.5 2.52662 16.2333 2.03995 15.7433C1.55329 15.2567 1.28329 14.61 1.28329 13.92C1.28329 13.23 1.54995 12.5833 2.03995 12.0967L8.80662 5.33C9.39995 4.73667 10.3666 4.73667 10.96 5.33C11.5533 5.92333 11.5533 6.89 10.96 7.48333L5.29995 13.1433Z" fill="#41494E"/>
</svg>
