<svg width="24" height="24" viewBox="0 0 24 24" fill="none" xmlns="http://www.w3.org/2000/svg">
<g id="Frame 8644">
<path id="Vector" d="M21 12.0107V19.019C21 19.55 20.7893 20.0593 20.4142 20.4348C20.0391 20.8104 19.5304 21.0213 19 21.0213H5C4.46957 21.0213 3.96086 20.8104 3.58579 20.4348C3.21071 20.0593 3 19.55 3 19.019V12.0107H21ZM16 3C16.2652 3 16.5196 3.10548 16.7071 3.29324C16.8946 3.481 17 3.73565 17 4.00118V5.00237H19C19.5304 5.00237 20.0391 5.21333 20.4142 5.58885C20.7893 5.96437 21 6.47368 21 7.00474V10.0083H3V7.00474C3 6.47368 3.21071 5.96437 3.58579 5.58885C3.96086 5.21333 4.46957 5.00237 5 5.00237H7V4.00118C7 3.73565 7.10536 3.481 7.29289 3.29324C7.48043 3.10548 7.73478 3 8 3C8.26522 3 8.51957 3.10548 8.70711 3.29324C8.89464 3.481 9 3.73565 9 4.00118V5.00237H15V4.00118C15 3.73565 15.1054 3.481 15.2929 3.29324C15.4804 3.10548 15.7348 3 16 3Z" fill="#9B9B9B"/>
</g>
</svg>
