<svg width="27" height="27" viewBox="0 0 27 27" fill="none" xmlns="http://www.w3.org/2000/svg">
<g id="car (1) 1">
<path id="Vector" d="M0.166534 9.78228C0.223577 9.61421 0.425785 9.48351 0.594604 9.48351C1.32565 9.48351 2.05657 9.48351 2.78761 9.48351C2.95637 9.48351 3.15864 9.61421 3.21574 9.78228C3.27157 9.94677 3.31329 10.0935 3.34102 10.2316L4.80591 6.13058C5.04752 5.45434 5.6874 5 6.39795 5L17.6019 5C18.3125 5 18.9523 5.45434 19.194 6.13071L20.6589 10.2321C20.6867 10.0939 20.7284 9.94695 20.7843 9.78228C20.8414 9.61422 21.0436 9.48351 21.2124 9.48351C21.9434 9.48351 22.6744 9.48351 23.4054 9.48351C23.5742 9.48351 23.7764 9.61422 23.8335 9.78228C24.0556 10.4366 24.0555 10.8112 23.8334 11.4656C23.7764 11.6337 23.5741 11.7644 23.4054 11.7644C22.6743 11.7644 21.9433 11.7644 21.2123 11.7644C21.2103 11.7644 21.2081 11.7638 21.206 11.7638L21.239 11.8565C21.6862 12.0068 22.0091 12.4328 22.0091 12.9358L22.0091 16.37L22.0091 16.653L22.0091 20.4531C22.0091 20.7552 21.7671 21 21.4686 21L18.7486 21C18.4501 21 18.2081 20.7552 18.2081 20.4531L18.2081 17.7908L5.79176 17.7908L5.79176 20.4531C5.79176 20.7552 5.54978 21 5.25131 21L2.53128 21C2.23275 21 1.99083 20.7552 1.99083 20.4531L1.99083 16.653L1.99083 16.37L1.99083 12.9358C1.99083 12.4329 2.31357 12.007 2.76055 11.8566L2.79369 11.7638C2.79169 11.7638 2.78956 11.7643 2.78755 11.7643C2.05651 11.7643 1.32559 11.7643 0.594543 11.7643C0.425723 11.7643 0.223516 11.6336 0.166473 11.4655C-0.0555578 10.8112 -0.0554357 10.4366 0.166534 9.78228ZM17.3949 7.01255L6.60642 7.01255L4.89707 11.7979L19.1042 11.7979L17.3949 7.01255ZM17.094 15.169L19.3696 15.169C19.8578 15.169 20.2535 14.7686 20.2535 14.2746C20.2535 13.7806 19.8578 13.3801 19.3696 13.3801L17.094 13.3801C16.6059 13.3801 16.2101 13.7806 16.2101 14.2746C16.21 14.7686 16.6059 15.169 17.094 15.169ZM4.63052 15.169L6.90605 15.169C7.39421 15.169 7.78998 14.7686 7.78998 14.2746C7.78998 13.7806 7.39421 13.3801 6.90605 13.3801L4.63052 13.3801C4.1423 13.3801 3.74659 13.7806 3.74659 14.2746C3.74659 14.7686 4.1423 15.169 4.63052 15.169Z" fill="#9B9B9B"/>
</g>
</svg>
