<svg width="22" height="19" viewBox="0 0 22 19" fill="none" xmlns="http://www.w3.org/2000/svg">
<g id="Frame 8646">
<g id="_x31_4_comment">
<path id="Vector" d="M1.93252 0H17.3924C18.4578 0 19.3248 0.847002 19.3248 1.88782V11.9562C19.3248 12.997 18.4578 13.844 17.3924 13.844H15.4599V16.9904C15.4599 17.2327 15.3175 17.4523 15.0953 17.5574C15.0057 17.5989 14.9104 17.6197 14.8157 17.6197C14.6721 17.6197 14.5297 17.5731 14.4131 17.4818L9.75842 13.844H1.93252C0.867081 13.844 4.19617e-05 12.997 4.19617e-05 11.9562V1.88782C4.19617e-05 0.847002 0.867081 0 1.93252 0ZM9.66244 8.80983H14.8157C15.1719 8.80983 15.4599 8.52792 15.4599 8.18056C15.4599 7.8332 15.1719 7.55128 14.8157 7.55128H9.66244C9.30622 7.55128 9.01828 7.8332 9.01828 8.18056C9.01828 8.52792 9.30622 8.80983 9.66244 8.80983ZM4.50916 6.29274H14.8157C15.1719 6.29274 15.4599 6.01082 15.4599 5.66346C15.4599 5.3161 15.1719 5.03419 14.8157 5.03419H4.50916C4.15294 5.03419 3.865 5.3161 3.865 5.66346C3.865 6.01082 4.15294 6.29274 4.50916 6.29274Z" fill="#9B9B9B"/>
</g>
</g>
</svg>
