<svg xmlns="http://www.w3.org/2000/svg" width="24" height="24" viewBox="0 0 24 24" fill="none">
  <g clip-path="url(#clip0_700_8161)">
    <path d="M18.9999 12.0461C18.447 12.0461 18 12.4941 18 13.046V21.0461C18 21.597 17.5519 22.046 17.0001 22.046H3C2.44794 22.046 2.00006 21.597 2.00006 21.0461V7.04602C2.00006 6.49506 2.44794 6.04608 3 6.04608H11.0001C11.553 6.04608 12 5.59802 12 5.04614C12 4.49408 11.553 4.04602 11.0001 4.04602H3C1.34601 4.04602 0 5.39203 0 7.04602V21.0461C0 22.7001 1.34601 24.0461 3 24.0461H17.0001C18.6541 24.0461 20.0001 22.7001 20.0001 21.0461V13.046C20.0001 12.493 19.5529 12.0461 18.9999 12.0461Z" fill="#E8ECF4"/>
    <path d="M9.37588 11.1351C9.30594 11.2051 9.25888 11.2941 9.23892 11.39L8.53195 14.9261C8.49899 15.09 8.55099 15.259 8.66891 15.3781C8.76394 15.4731 8.89194 15.524 9.02304 15.524C9.0549 15.524 9.08804 15.5211 9.121 15.5141L12.656 14.8071C12.754 14.787 12.843 14.7401 12.912 14.67L20.824 6.758L17.289 3.22314L9.37588 11.1351Z" fill="#E8ECF4"/>
    <path d="M23.2678 0.778152C22.293 -0.196884 20.7069 -0.196884 19.7328 0.778152L18.3489 2.16206L21.8839 5.6971L23.2678 4.313C23.7399 3.84206 23.9999 3.214 23.9999 2.54604C23.9999 1.87807 23.7399 1.25002 23.2678 0.778152Z" fill="#E8ECF4"/>
  </g>
  <defs>
    <clipPath id="clip0_700_8161">
      <rect width="24" height="24" fill="white"/>
    </clipPath>
  </defs>
</svg>