<svg width="17" height="16" viewBox="0 0 17 16" fill="none" xmlns="http://www.w3.org/2000/svg">
<path id="Path 2361" d="M6.83613 12.5035C8.22972 12.5035 9.57917 12.0435 10.6764 11.2043L14.8193 15.2883C15.1283 15.5805 15.6265 15.568 15.9229 15.2634C16.2066 14.9651 16.2066 14.4989 15.9229 14.2067L11.7799 10.1227C13.8987 7.43103 13.4068 3.55212 10.6764 1.46348C7.94596 -0.625171 4.01111 -0.140307 1.89235 2.55131C-0.226415 5.24293 0.265441 9.12184 2.99587 11.2105C4.09309 12.0497 5.44884 12.5097 6.84244 12.5097L6.83613 12.5035ZM3.50664 3.05482C5.34164 1.24591 8.32431 1.24591 10.1593 3.05482C11.9943 4.86374 11.9943 7.804 10.1593 9.61292C8.32431 11.4218 5.34164 11.4218 3.50664 9.61292C1.67164 7.81643 1.65903 4.88861 3.48142 3.07969L3.50664 3.05482Z" fill="#41494E"/>
</svg>
