<svg xmlns="http://www.w3.org/2000/svg" width="33" height="23" viewBox="0 0 33 23" fill="none">
  <path d="M27.71 0H11.99C11.22 0 10.46 0.21 9.80005 0.61C8.54005 1.39 7.76001 2.77 7.76001 4.26V14.78C7.79001 17.1 9.65999 18.98 11.99 19.01H27.83C30.15 18.98 32.0301 17.11 32.0601 14.78V4.26C31.9801 1.91 30.06 0.0299993 27.71 0.00999928V0ZM11.99 2.43H27.95L21.29 8.11C20.51 8.84 19.3 8.84 18.52 8.11L11.74 2.43H11.98H11.99ZM29.53 14.87C29.51 15.87 28.7 16.67 27.71 16.69H11.99C10.99 16.67 10.19 15.86 10.17 14.87V4.25L16.95 9.93C17.76 10.62 18.78 11.01 19.84 11.02C20.9 11.01 21.93 10.62 22.73 9.93L29.51 4.25V14.87H29.53Z" fill="#3C4B52"/>
  <path d="M6.96997 12.97V19.14" stroke="white" stroke-width="2" stroke-linecap="round"/>
</svg>