<svg xmlns="http://www.w3.org/2000/svg" width="88" height="42" viewBox="0 0 88 42" fill="none">
<path d="M34 0H8C3.58172 0 0 3.58172 0 8V34C0 38.4183 3.58172 42 8 42H34C38.4183 42 42 38.4183 42 34V8C42 3.58172 38.4183 0 34 0Z" fill="#E8ECF4"/>
<path d="M80 0H54C49.5817 0 46 3.58172 46 8V34C46 38.4183 49.5817 42 54 42H80C84.4183 42 88 38.4183 88 34V8C88 3.58172 84.4183 0 80 0Z" fill="#E8ECF4"/>
<path d="M18.5 25.23L22.86 20.87L18.5 16.51" stroke="#41494E" stroke-linecap="round"/>
<path d="M61 25.73L65.36 21.37L61 17.01" stroke="#41494E" stroke-linecap="round"/>
<path d="M69 25.73L73.36 21.37L69 17.01" stroke="#41494E" stroke-linecap="round"/>
</svg>