<svg width="24" height="24" viewBox="0 0 24 24" fill="none" xmlns="http://www.w3.org/2000/svg">
<g id="Frame 8645">
<g id="Group 8629">
<path id="Vector" d="M18.5052 13.1031C13.983 12.2168 10.4105 17.2246 12.7262 21.2274C15.5122 26.0755 22.9388 24.1836 23 18.5119C22.9986 17.2269 22.5485 15.9828 21.7276 14.995C20.9068 14.0073 19.7668 13.338 18.5052 13.1031ZM14.5918 21.11C14.249 20.7258 13.9864 20.2767 13.8195 19.7893C14.3765 19.7302 14.9393 19.8139 15.4551 20.0326C15.7802 20.1791 16.0669 20.3992 16.2925 20.6756C16.6707 21.1685 16.8942 21.7627 16.9346 22.383C16.0288 22.2467 15.1996 21.7961 14.5918 21.11ZM16.6873 19.5808C16.5169 19.4497 16.3803 19.2796 16.289 19.0847C16.1977 18.8899 16.1543 18.676 16.1625 18.4609C16.1707 18.2458 16.2303 18.0359 16.3362 17.8486C16.4421 17.6613 16.5913 17.5022 16.7712 17.3845C16.9512 17.2668 17.1567 17.194 17.3705 17.1722C17.5843 17.1504 17.8003 17.1802 18.0002 17.2591C18.2002 17.338 18.3784 17.4638 18.5198 17.6258C18.6613 17.7879 18.7619 17.9815 18.8132 18.1905C18.8776 18.4611 18.857 18.7451 18.7541 19.0035C18.6513 19.262 18.4712 19.4823 18.2386 19.6344C18.006 19.7866 17.7321 19.863 17.4545 19.8534C17.1768 19.8438 16.9089 19.7486 16.6873 19.5808ZM18.0757 22.383C18.0826 21.998 18.1723 21.6191 18.3387 21.272C18.5051 20.9249 18.7443 20.6178 19.0399 20.3716C19.3356 20.1255 19.6808 19.946 20.052 19.8455C20.4231 19.7451 20.8116 19.7259 21.1908 19.7894C20.9573 20.4651 20.5435 21.064 19.9944 21.5211C19.4453 21.9783 18.7818 22.2764 18.0757 22.383ZM20.4229 16.9523C18.5193 16.012 15.1585 16.2091 13.737 17.4954C13.9601 16.6641 14.4511 15.9297 15.1338 15.4065C15.8165 14.8832 16.6526 14.6004 17.5123 14.6018C18.372 14.6033 19.2071 14.8891 19.888 15.4147C20.5689 15.9402 21.0574 16.6763 21.2776 17.5084C21.022 17.2814 20.7339 17.0939 20.4229 16.9523Z" fill="#3C4B52"/>
<path id="Vector_2" d="M11.5021 11C14.0699 11 16 7.1105 16 4.58865C15.7521 -1.53249 7.2461 -1.52662 7 4.58868C7.00001 7.1105 8.93435 11 11.5021 11Z" fill="#3C4B52"/>
<path id="Vector_3" d="M17.5 18C17.3665 18.0026 17.2393 18.0565 17.1458 18.15C17.0524 18.2434 17 18.3691 17 18.5C17 18.6309 17.0524 18.7566 17.1458 18.85C17.2393 18.9435 17.3665 18.9974 17.5 19C17.6335 18.9974 17.7607 18.9435 17.8542 18.85C17.9476 18.7566 18 18.6309 18 18.5C18 18.3691 17.9476 18.2434 17.8542 18.15C17.7607 18.0565 17.6335 18.0026 17.5 18Z" fill="#3C4B52"/>
<path id="Vector_4" d="M11.3315 18.4875C11.3361 16.9254 12.0278 15.4284 13.2555 14.3235C14.4831 13.2185 16.147 12.5954 17.8838 12.5902C17.9226 12.5894 17.9614 12.5908 18 12.5942C17.2651 11.9671 16.4287 11.4439 15.5194 11.0425C15.4328 11.0033 15.3344 10.9908 15.2391 11.0068C15.1439 11.0227 15.0571 11.0663 14.992 11.1309C14.5005 11.6558 13.8922 12.0822 13.2063 12.3827C12.5204 12.6832 11.7721 12.8511 11.0096 12.8756C10.246 12.8506 9.49655 12.6825 8.80927 12.3821C8.12199 12.0817 7.512 11.6555 7.01833 11.1309C6.95326 11.0663 6.86646 11.0227 6.77121 11.0068C6.67595 10.9908 6.5775 11.0033 6.49093 11.0425C5.08591 11.6694 3.86033 12.579 2.90927 13.7007C1.95821 14.8224 1.30723 16.1261 1.00683 17.5106C0.994269 17.5749 0.999082 17.641 1.02087 17.7033C1.04265 17.7655 1.08076 17.8222 1.13199 17.8684C2.06639 18.8443 3.22246 19.6288 4.52235 20.169C5.82224 20.7092 7.23574 20.9925 8.66764 21L11.9572 21C11.5443 20.2145 11.3305 19.3563 11.3315 18.4875Z" fill="#3C4B52"/>
</g>
</g>
</svg>
