<svg width="18" height="22" viewBox="0 0 18 22" fill="none" xmlns="http://www.w3.org/2000/svg">
<path id="Icon ionic-md-bulb" opacity="0.7" d="M5.30707 20.8701C5.30707 21.4901 5.81707 22.0001 6.43707 22.0001H11.4171C12.0371 22.0001 12.5471 21.4901 12.5471 20.8701V19.8501H5.29706V20.8701H5.30707ZM8.93707 0.260062C4.58707 0.100062 0.937109 3.50007 0.787109 7.85007C0.807109 10.3901 2.11709 12.7501 4.26709 14.1101V16.5601C4.28709 17.1801 4.80707 17.6701 5.43707 17.6501H12.4471C13.0671 17.6701 13.5971 17.1901 13.6171 16.5601V14.1101C15.7671 12.7501 17.0771 10.3901 17.0971 7.85007C16.9371 3.50007 13.2871 0.110062 8.94708 0.260062H8.93707Z" fill="#41494E"/>
</svg>
