<svg width="24" height="24" viewBox="0 0 24 24" fill="none" xmlns="http://www.w3.org/2000/svg">
<g id="Frame 8649">
<path id="Union" fill-rule="evenodd" clip-rule="evenodd" d="M10.4568 2.13641C10.4432 2.0459 10.4362 1.95326 10.4362 1.85899C10.4362 0.832271 11.2685 0 12.2952 0C13.3219 0 14.1542 0.832271 14.1542 1.85899C14.1542 1.95331 14.1472 2.04598 14.1336 2.13653C16.6583 2.91993 18.4917 5.27412 18.4917 8.05587C18.4916 12.1272 19.597 13.5457 20.4872 14.6882C21.0874 15.4584 21.5899 16.1031 21.5899 17.3508C21.5899 17.3508 21.5898 18.5901 20.3505 18.5901L4.23929 18.59C2.99999 18.59 3 17.3507 3 17.3507C3.00001 16.103 3.50246 15.4582 4.10268 14.688C4.99295 13.5456 6.09833 12.1271 6.09837 8.05576C6.09839 5.27391 7.932 2.91967 10.4568 2.13641ZM9.21884 20.4485C9.21884 22.0696 10.5726 23.3839 12.2422 23.3839C13.9118 23.3839 15.2655 22.0696 15.2655 20.4485L9.21884 20.4485Z" fill="#3C4B52"/>
</g>
</svg>
