<svg width="21" height="18" viewBox="0 0 21 18" fill="none" xmlns="http://www.w3.org/2000/svg">
<g id="briefcase-2">
<path id="Path 2933-2" d="M18.6736 3.35H14.2136V1.55C14.2136 0.689995 13.5236 0 12.6636 0H8.11355C7.25355 0 6.56355 0.689995 6.56355 1.55V3.35H2.10356C0.963556 3.35 0.0435587 4.27 0.0435587 5.41C-0.106441 6.46 0.133551 7.53 0.723551 8.41C1.16355 9 1.78356 9.42 2.48356 9.63L9.35356 11.63C10.0336 11.83 10.7536 11.83 11.4336 11.63L18.3036 9.63C19.0036 9.43 19.6235 9 20.0635 8.41C20.6535 7.53 20.8935 6.46 20.7435 5.41C20.7435 4.27 19.8235 3.35 18.6835 3.35H18.6736ZM7.87356 1.55C7.87356 1.42 7.98355 1.31 8.11355 1.31H12.6636C12.7936 1.31 12.9036 1.42 12.9036 1.55V3.35H7.88355V1.55H7.87356Z" fill="#9B9B9B"/>
<path id="Path 2934-2" d="M18.6736 10.8899C11.2636 13.0499 11.3536 13.0899 10.3936 13.0899C9.43357 13.0899 9.66357 13.0899 2.11357 10.8899C1.32357 10.6599 0.613579 10.2299 0.0435791 9.63989V15.9399C0.0435791 17.0799 0.963577 17.9999 2.10358 17.9999H18.6736C19.8136 17.9999 20.7336 17.0799 20.7336 15.9399V9.63989C20.1636 10.2299 19.4536 10.6599 18.6636 10.8899H18.6736Z" fill="#9B9B9B"/>
</g>
</svg>
