<svg xmlns="http://www.w3.org/2000/svg" width="14" height="14" viewBox="0 0 14 14" fill="none">
  <path d="M5.25 0H1.3125C0.588744 0 0 0.588744 0 1.3125V5.25C0 5.97376 0.588744 6.5625 1.3125 6.5625H5.25C5.97376 6.5625 6.5625 5.97376 6.5625 5.25V1.3125C6.5625 0.588744 5.97376 0 5.25 0ZM5.6875 5.25C5.6875 5.49118 5.49139 5.6875 5.25 5.6875H1.3125C1.07111 5.6875 0.875 5.49118 0.875 5.25V1.3125C0.875 1.07132 1.07111 0.875 1.3125 0.875H5.25C5.49139 0.875 5.6875 1.07132 5.6875 1.3125V5.25Z" fill="#3C4B52"/>
  <path d="M12.6875 0H8.75C8.02624 0 7.4375 0.588744 7.4375 1.3125V5.25C7.4375 5.97376 8.02624 6.5625 8.75 6.5625H12.6875C13.4113 6.5625 14 5.97376 14 5.25V1.3125C14 0.588744 13.4113 0 12.6875 0ZM13.125 5.25C13.125 5.49118 12.9289 5.6875 12.6875 5.6875H8.75C8.50861 5.6875 8.3125 5.49118 8.3125 5.25V1.3125C8.3125 1.07132 8.50861 0.875 8.75 0.875H12.6875C12.9289 0.875 13.125 1.07132 13.125 1.3125V5.25Z" fill="#3C4B52"/>
  <path d="M12.6875 7.4375H8.75C8.02624 7.4375 7.4375 8.02624 7.4375 8.75V12.6875C7.4375 13.4113 8.02624 14 8.75 14H12.6875C13.4113 14 14 13.4113 14 12.6875V8.75C14 8.02624 13.4113 7.4375 12.6875 7.4375ZM13.125 12.6875C13.125 12.9287 12.9289 13.125 12.6875 13.125H8.75C8.50861 13.125 8.3125 12.9287 8.3125 12.6875V8.75C8.3125 8.50882 8.50861 8.3125 8.75 8.3125H12.6875C12.9289 8.3125 13.125 8.50882 13.125 8.75V12.6875Z" fill="#3C4B52"/>
  <path d="M5.25 7.4375H1.3125C0.588744 7.4375 0 8.02624 0 8.75V12.6875C0 13.4113 0.588744 14 1.3125 14H5.25C5.97376 14 6.5625 13.4113 6.5625 12.6875V8.75C6.5625 8.02624 5.97376 7.4375 5.25 7.4375ZM5.6875 12.6875C5.6875 12.9287 5.49139 13.125 5.25 13.125H1.3125C1.07111 13.125 0.875 12.9287 0.875 12.6875V8.75C0.875 8.50882 1.07111 8.3125 1.3125 8.3125H5.25C5.49139 8.3125 5.6875 8.50882 5.6875 8.75V12.6875Z" fill="#3C4B52"/>
</svg>