<svg xmlns="http://www.w3.org/2000/svg" width="28" height="27" viewBox="0 0 28 27" fill="none">
  <path d="M20.1102 9.7288C20.5358 10.1289 20.5358 10.7774 20.1102 11.1773L12.8013 18.0483C12.3757 18.4482 11.686 18.4482 11.2605 18.0483L7.78113 14.7773C7.35555 14.3775 7.35555 13.7289 7.78113 13.3291C8.2065 12.929 8.89637 12.929 9.32173 13.3291L12.0308 15.8757L18.5694 9.7288C18.995 9.32893 19.6848 9.32893 20.1102 9.7288ZM27.8911 13.8886C27.8911 21.1349 21.6529 26.9982 13.9457 26.9982C6.23734 26.9982 0.000244141 21.1339 0.000244141 13.8886C0.000244141 6.64224 6.2384 0.778965 13.9457 0.778965C21.654 0.778965 27.8911 6.64324 27.8911 13.8886ZM25.7121 13.8886C25.7121 7.77445 20.4487 2.82734 13.9457 2.82734C7.44173 2.82734 2.17922 7.77525 2.17922 13.8886C2.17922 20.0027 7.44258 24.9498 13.9457 24.9498C20.4496 24.9498 25.7121 20.0019 25.7121 13.8886Z" fill="#2A9A2F"/>
</svg>