<svg xmlns="http://www.w3.org/2000/svg" width="29" height="29" viewBox="0 0 29 29" fill="none">
  <g clip-path="url(#clip0_439_3830)">
    <path d="M24.7467 4.24367C23.4014 2.89545 21.803 1.8263 20.0433 1.09763C18.2836 0.368954 16.3973 -0.00488434 14.4928 -0.00241398C6.48392 -0.00241398 -0.00845718 6.48996 -0.00845718 14.4988C-0.00845718 18.5032 1.61554 22.1294 4.24004 24.7539C5.58532 26.1021 7.1837 27.1713 8.94338 27.9C10.7031 28.6286 12.5894 29.0025 14.494 29C22.5028 29 28.9952 22.5076 28.9952 14.4988C28.9952 10.4944 27.3712 6.86817 24.7467 4.24367ZM22.8834 22.8846C21.7829 23.988 20.4752 24.863 19.0355 25.4594C17.5957 26.0557 16.0523 26.3617 14.494 26.3598C7.94117 26.3598 2.62933 21.048 2.62933 14.4952C2.62738 12.9368 2.93339 11.3934 3.52977 9.95367C4.12615 8.51393 5.00116 7.20623 6.1045 6.10571C7.20476 5.00235 8.51224 4.12732 9.95179 3.53093C11.3913 2.93455 12.9346 2.62855 14.4928 2.63054C21.0443 2.63054 26.3562 7.94238 26.3562 14.494C26.3582 16.0522 26.0523 17.5954 25.4559 19.035C24.8595 20.4745 23.9844 21.782 22.881 22.8822L22.8834 22.8846Z" fill="#E94E31"/>
    <path d="M16.3572 14.5L21.0153 9.84188C21.2451 9.59142 21.3693 9.2619 21.3619 8.92209C21.3545 8.58228 21.2162 8.25845 20.9758 8.01819C20.7354 7.77793 20.4115 7.63981 20.0716 7.63267C19.7318 7.62552 19.4024 7.7499 19.1521 7.97983L19.1533 7.97863L14.4952 12.6368L9.83704 7.97863C9.58659 7.74885 9.25706 7.62469 8.91726 7.63205C8.57745 7.63942 8.25362 7.77775 8.01336 8.01817C7.7731 8.25858 7.63498 8.5825 7.62783 8.92232C7.62068 9.26213 7.74506 9.59157 7.975 9.84188L7.97379 9.84067L12.6319 14.4988L7.97379 19.1569C7.84273 19.2772 7.73736 19.4227 7.66401 19.5847C7.59067 19.7467 7.55087 19.9219 7.54702 20.0998C7.54316 20.2776 7.57533 20.4543 7.64158 20.6194C7.70783 20.7844 7.8068 20.9344 7.93252 21.0602C8.05825 21.186 8.20813 21.2851 8.37315 21.3514C8.53816 21.4178 8.7149 21.4501 8.89272 21.4463C9.07054 21.4426 9.24576 21.4029 9.40784 21.3297C9.56992 21.2564 9.71551 21.1511 9.83583 21.0202L9.83704 21.019L14.4952 16.3608L19.1533 21.019C19.2735 21.15 19.419 21.2554 19.5811 21.3287C19.7431 21.4021 19.9183 21.4419 20.0961 21.4457C20.2739 21.4496 20.4507 21.4174 20.6158 21.3512C20.7808 21.2849 20.9308 21.1859 21.0566 21.0602C21.1824 20.9345 21.2814 20.7846 21.3478 20.6196C21.4142 20.4546 21.4464 20.2778 21.4427 20.1C21.439 19.9222 21.3993 19.747 21.326 19.5849C21.2528 19.4228 21.1475 19.2772 21.0165 19.1569L21.0153 19.1557L16.3572 14.5Z" fill="#E94E31"/>
  </g>
  <defs>
    <clipPath id="clip0_439_3830">
      <rect width="29" height="29" fill="white"/>
    </clipPath>
  </defs>
</svg>