<svg xmlns="http://www.w3.org/2000/svg" width="16" height="13" viewBox="0 0 16 13" fill="none">
  <path d="M14.094 0.5H1.90599C1.12677 0.5 0.5 1.1687 0.5 2.00003V11C0.5 11.8313 1.12677 12.5 1.90599 12.5H14.094C14.8648 12.5 15.4915 11.8223 15.5 11V2.00003C15.5 1.17774 14.8732 0.5 14.094 0.5ZM14.094 1.503C14.1533 1.503 14.2126 1.51207 14.2719 1.53918L8.00424 7.34035L1.73659 1.53918C1.79588 1.51207 1.85517 1.503 1.91445 1.503H14.094ZM14.094 11.506H1.90599C1.64342 11.506 1.44015 11.2801 1.44015 11.009V2.60543L7.69085 8.38857C7.86872 8.55122 8.13128 8.55122 8.30915 8.38857L14.5683 2.60543V11.009C14.5683 11.2891 14.3566 11.506 14.1025 11.506H14.094Z" fill="#3C4B52"/>
</svg>