<svg xmlns="http://www.w3.org/2000/svg" width="18" height="17" viewBox="0 0 18 17" fill="none">
  <path d="M4.24233 11.1357C5.82643 13.0222 7.73334 14.5075 9.90981 15.5584C10.7385 15.9496 11.8467 16.4138 13.0813 16.4934C13.1579 16.4967 13.2311 16.5 13.3076 16.5C14.1363 16.5 14.8019 16.2149 15.3443 15.6281C15.3477 15.6247 15.3543 15.6181 15.3577 15.6115C15.5507 15.3794 15.7703 15.1705 15.9999 14.9484C16.1564 14.7992 16.3161 14.6434 16.4692 14.4843C17.178 13.7482 17.178 12.8133 16.4625 12.1005L14.4624 10.108C14.123 9.75653 13.717 9.57087 13.291 9.57087C12.865 9.57087 12.4557 9.75653 12.1063 10.1046L10.9149 11.2915C10.805 11.2286 10.6919 11.1722 10.5854 11.1191C10.4523 11.0528 10.3291 10.9898 10.2193 10.9202C9.1344 10.2339 8.14933 9.33879 7.20752 8.18835C6.73163 7.58827 6.41215 7.08433 6.18917 6.57045C6.502 6.28864 6.79486 5.99358 7.07773 5.70514C7.17757 5.60236 7.28074 5.49959 7.38391 5.39681C7.74332 5.03875 7.93634 4.62433 7.93634 4.20327C7.93634 3.78222 7.74665 3.3678 7.38391 3.00974L6.39218 2.02176C6.2757 1.90572 6.16588 1.793 6.05273 1.67696C5.83308 1.45151 5.60346 1.21944 5.37716 1.01057C5.03438 0.675715 4.6317 0.5 4.20572 0.5C3.78307 0.5 3.37706 0.675715 3.02097 1.01388L1.77632 2.25383C1.32372 2.70472 1.06747 3.25176 1.01422 3.885C0.950992 4.67737 1.09742 5.51948 1.47681 6.5373C2.0592 8.1121 2.93777 9.57418 4.24233 11.1357ZM1.82624 3.95462C1.86618 3.51368 2.0359 3.14567 2.35538 2.82739L3.59338 1.59407C3.7864 1.40841 3.99939 1.31227 4.20572 1.31227C4.40872 1.31227 4.61506 1.40841 4.80475 1.6007C5.02772 1.80626 5.23738 2.02176 5.46368 2.25052C5.57683 2.36656 5.69331 2.48259 5.80979 2.60195L6.80152 3.58993C7.00785 3.79548 7.11434 4.00435 7.11434 4.2099C7.11434 4.41546 7.00785 4.62433 6.80152 4.82988C6.69835 4.93266 6.59518 5.03875 6.49202 5.14152C6.18252 5.45317 5.89299 5.74824 5.5735 6.03005C5.56685 6.03668 5.56352 6.03999 5.55687 6.04662C5.28065 6.3218 5.32391 6.58371 5.39047 6.78264C5.3938 6.79258 5.39712 6.79921 5.40045 6.80916C5.6567 7.4225 6.01279 8.00601 6.56856 8.70224C7.56694 9.92893 8.61857 10.8804 9.7767 11.6131C9.9198 11.706 10.0729 11.7789 10.216 11.8518C10.3491 11.9182 10.4722 11.9811 10.5821 12.0508C10.5954 12.0574 10.6054 12.064 10.6187 12.0707C10.7285 12.127 10.835 12.1535 10.9415 12.1535C11.2077 12.1535 11.3808 11.9845 11.4373 11.9281L12.682 10.6881C12.875 10.4959 13.0847 10.3931 13.291 10.3931C13.5439 10.3931 13.7503 10.5489 13.88 10.6881L15.8868 12.684C16.2862 13.0818 16.2828 13.5128 15.8768 13.9339C15.737 14.0831 15.5906 14.2257 15.4342 14.3748C15.2012 14.6003 14.9583 14.8324 14.7387 15.0943C14.3559 15.5054 13.9 15.6977 13.311 15.6977C13.2544 15.6977 13.1945 15.6944 13.1379 15.691C12.0464 15.6214 11.0313 15.1971 10.2692 14.8357C8.19925 13.8378 6.38219 12.4221 4.87464 10.6252C3.63331 9.13655 2.798 7.75073 2.24556 6.26544C1.90278 5.35371 1.77299 4.62101 1.82624 3.95462Z" fill="#3C4B52" stroke="#3C4B52" stroke-width="0.2"/>
</svg>