<svg width="16" height="17" viewBox="0 0 16 17" fill="none" xmlns="http://www.w3.org/2000/svg">
<path id="Vector" d="M16 8.5C16 8.75461 15.8989 8.99879 15.7188 9.17882C15.5388 9.35886 15.2946 9.46 15.04 9.46H8.96V15.54C8.96 15.7946 8.85886 16.0388 8.67882 16.2188C8.49879 16.3989 8.25461 16.5 8 16.5C7.74539 16.5 7.50121 16.3989 7.32118 16.2188C7.14114 16.0388 7.04 15.7946 7.04 15.54V9.46H0.96C0.705392 9.46 0.461212 9.35886 0.281178 9.17882C0.101143 8.99879 0 8.75461 0 8.5C0 8.24539 0.101143 8.00121 0.281178 7.82118C0.461212 7.64114 0.705392 7.54 0.96 7.54H7.04V1.46C7.04 1.20539 7.14114 0.961212 7.32118 0.781178C7.50121 0.601143 7.74539 0.5 8 0.5C8.25461 0.5 8.49879 0.601143 8.67882 0.781178C8.85886 0.961212 8.96 1.20539 8.96 1.46V7.54H15.04C15.2946 7.54 15.5388 7.64114 15.7188 7.82118C15.8989 8.00121 16 8.24539 16 8.5Z" fill="#E8ECF4"/>
</svg>
