<svg width="24" height="24" viewBox="0 0 24 24" fill="none" xmlns="http://www.w3.org/2000/svg">
<g id="Frame 8645">
<g id="Group 8629">
<g id="Group">
<path id="Vector" d="M23.6124 7.69183L12.3149 2.07393C12.1167 1.97536 11.8833 1.97536 11.6851 2.07393L0.387598 7.69183C-0.128824 7.94864 -0.129574 8.68308 0.387598 8.94022L11.6851 14.5581C11.8832 14.6567 12.1167 14.6567 12.3149 14.5581L15.5627 12.9431V12.237L10.9505 9.64501C10.6125 9.45507 10.4936 9.02912 10.6849 8.69355C10.8763 8.35803 11.3054 8.24 11.6432 8.42989L16.6122 11.2224C16.8327 11.3463 16.969 11.5784 16.969 11.83V12.2438L23.6124 8.94027C24.1289 8.68345 24.1296 7.94902 23.6124 7.69183Z" fill="#9B9B9B"/>
<path id="Vector_2" d="M15.5626 16.03V14.5047L12.9446 15.8066C12.3607 16.097 11.6596 16.1072 11.0552 15.8066L4.26514 12.4301V16.205C4.26514 16.331 4.29945 16.4546 4.36451 16.5628C6.05023 19.367 11.2268 19.8915 14.5674 19.3209C13.6492 18.174 14.178 16.4813 15.5626 16.03Z" fill="#9B9B9B"/>
<path id="Vector_3" d="M16.9688 16.0632C17.7334 16.3531 18.2862 17.0722 18.3257 17.9224C18.8638 17.5469 19.3141 17.0968 19.6351 16.5628C19.7002 16.4547 19.7345 16.331 19.7345 16.205V12.4301L16.9688 13.8054V16.0632Z" fill="#9B9B9B"/>
<path id="Vector_4" d="M17.6563 19.551C16.8459 20.3014 15.5939 20.303 14.7818 19.551L13.6991 22.0234C13.4975 22.4837 13.8377 22.9999 14.3439 22.9999H18.0941C18.5996 22.9999 18.9409 22.4843 18.739 22.0234L17.6563 19.551Z" fill="#9B9B9B"/>
<path id="Vector_5" d="M16.2188 18.7182C16.6071 18.7182 16.9219 18.4056 16.9219 18.0201C16.9219 17.6345 16.6071 17.3219 16.2188 17.3219C15.8304 17.3219 15.5156 17.6345 15.5156 18.0201C15.5156 18.4056 15.8304 18.7182 16.2188 18.7182Z" fill="#9B9B9B"/>
</g>
</g>
</g>
</svg>
