<svg xmlns="http://www.w3.org/2000/svg" width="14" height="17" viewBox="0 0 14 17" fill="none">
  <path d="M10.3933 8.20139C12.1618 6.36768 12.0747 3.47641 10.2016 1.74504C8.32856 0.0136793 5.37523 0.098969 3.60672 1.93268C1.9079 3.68963 1.9079 6.44444 3.60672 8.20139C1.27193 9.47219 0 12.1758 0 15.9286C0 16.2441 0.261355 16.5 0.583695 16.5H13.4163C13.7386 16.5 14 16.2441 14 15.9286C14 12.1758 12.7281 9.48072 10.3933 8.20139ZM6.99564 1.65121C8.92968 1.65121 10.4978 3.17789 10.4978 5.0713C10.4978 6.96471 8.9384 8.4999 7.00436 8.4999C5.07032 8.4999 3.50218 6.97323 3.50218 5.07981C3.50218 3.1864 5.07032 1.65121 7.00436 1.65121H6.99564ZM1.1761 15.3571C1.27193 12.9435 1.98631 10.1033 4.60859 8.99459C6.0809 9.86454 7.9191 9.86454 9.39141 8.99459C12.0137 10.1119 12.7281 12.9435 12.8239 15.3571H1.1761Z" fill="#3C4B52"/>
</svg>